HIERARCHY
ROOT Hips
{
	OFFSET 0.0000 0.0000 0.0000
	CHANNELS 6 Xposition Yposition Zposition Zrotation Xrotation Yrotation
	JOINT Spine1
	{
		OFFSET -0.0137 5.0038 -0.0537
		CHANNELS 3 Zrotation Xrotation Yrotation
		JOINT Spine2
		{
			OFFSET -0.0000 7.1253 -0.0298
			CHANNELS 3 Zrotation Xrotation Yrotation
			JOINT Chest
			{
				OFFSET -0.0000 7.5501 -0.8160
				CHANNELS 3 Zrotation Xrotation Yrotation
				JOINT Neck1
				{
					OFFSET -0.1817 26.3113 -0.5533
					CHANNELS 3 Zrotation Xrotation Yrotation
					JOINT Neck2
					{
						OFFSET -0.0000 7.7094 2.3026
						CHANNELS 3 Zrotation Xrotation Yrotation
						JOINT Head
						{
							OFFSET -0.0000 6.1289 1.9537
							CHANNELS 3 Zrotation Xrotation Yrotation
							JOINT Jaw
							{
								OFFSET 0.0026 0.4756 3.0949
								CHANNELS 3 Zrotation Xrotation Yrotation
								End Site
								{
									OFFSET 0.0 1.0 0.0
								}
							}
							JOINT LeftEye
							{
								OFFSET 3.2064 5.3802 7.5869
								CHANNELS 3 Zrotation Xrotation Yrotation
								End Site
								{
									OFFSET 0.0 1.0 0.0
								}
							}
							JOINT RightEye
							{
								OFFSET -3.2224 5.3619 7.5582
								CHANNELS 3 Zrotation Xrotation Yrotation
								End Site
								{
									OFFSET 0.0 1.0 0.0
								}
							}
						}
					}
				}
				JOINT LeftShoulder
				{
					OFFSET 1.6217 23.2372 5.1134
					CHANNELS 3 Zrotation Xrotation Yrotation
					JOINT LeftArm
					{
						OFFSET 14.9198 0.0000 -5.5023
						CHANNELS 3 Zrotation Xrotation Yrotation
						JOINT LeftForeArm
						{
							OFFSET 28.7393 0.0000 -0.0026
							CHANNELS 3 Zrotation Xrotation Yrotation
							JOINT LeftHand
							{
								OFFSET 27.0940 -0.0000 0.0026
								CHANNELS 3 Zrotation Xrotation Yrotation
								JOINT LeftHandThumbEnd
								{
									OFFSET 12.2686 -3.2202 4.8331
									CHANNELS 3 Zrotation Xrotation Yrotation
									End Site
									{
										OFFSET 0.0 1.0 0.0
									}
								}
								JOINT LeftHandMiddleEnd
								{
									OFFSET 19.0120 -0.3129 -0.0340
									CHANNELS 3 Zrotation Xrotation Yrotation
									End Site
									{
										OFFSET 0.0 1.0 0.0
									}
								}
							}
						}
					}
				}
				JOINT RightShoulder
				{
					OFFSET -1.3801 23.1803 5.2142
					CHANNELS 3 Zrotation Xrotation Yrotation
					JOINT RightArm
					{
						OFFSET -15.0372 0.0000 -5.5456
						CHANNELS 3 Zrotation Xrotation Yrotation
						JOINT RightForeArm
						{
							OFFSET -28.7366 0.0000 -0.0026
							CHANNELS 3 Zrotation Xrotation Yrotation
							JOINT RightHand
							{
								OFFSET -27.1336 -0.0000 0.0026
								CHANNELS 3 Zrotation Xrotation Yrotation
								JOINT RightHandThumbEnd
								{
									OFFSET -12.2642 -3.2115 4.8040
									CHANNELS 3 Zrotation Xrotation Yrotation
									End Site
									{
										OFFSET 0.0 1.0 0.0
									}
								}
								JOINT RightHandMiddleEnd
								{
									OFFSET -19.0006 -0.3066 -0.0316
									CHANNELS 3 Zrotation Xrotation Yrotation
									End Site
									{
										OFFSET 0.0 1.0 0.0
									}
								}
							}
						}
					}
				}
			}
		}
	}
	JOINT LeftLeg
	{
		OFFSET 10.0432 -8.4345 2.5957
		CHANNELS 3 Zrotation Xrotation Yrotation
		JOINT LeftShin
		{
			OFFSET -0.0000 -43.2218 -0.8029
			CHANNELS 3 Zrotation Xrotation Yrotation
			JOINT LeftFoot
			{
				OFFSET 0.0000 -42.1551 -3.4815
				CHANNELS 3 Zrotation Xrotation Yrotation
				JOINT LeftToeBase
				{
					OFFSET 0.0000 -5.0595 13.2315
					CHANNELS 3 Zrotation Xrotation Yrotation
					End Site
					{
						OFFSET 0.0 1.0 0.0
					}
				}
			}
		}
	}
	JOINT RightLeg
	{
		OFFSET -10.0473 -8.2953 2.6203
		CHANNELS 3 Zrotation Xrotation Yrotation
		JOINT RightShin
		{
			OFFSET 0.0000 -43.3622 -0.8056
			CHANNELS 3 Zrotation Xrotation Yrotation
			JOINT RightFoot
			{
				OFFSET 0.0000 -42.1174 -3.4784
				CHANNELS 3 Zrotation Xrotation Yrotation
				JOINT RightToeBase
				{
					OFFSET -0.0000 -5.0796 13.2842
					CHANNELS 3 Zrotation Xrotation Yrotation
					End Site
					{
						OFFSET 0.0 1.0 0.0
					}
				}
			}
		}
	}
}
MOTION
Frames: 15
Frame Time: 0.033333
-2.3587 96.8825 -3.7023 -3.2740 -2.2774 0.2275 3.4079 -0.1792 -0.4179 0.1971 -4.6745 0.4980 0.8672 10.9122 -2.0613 -0.6024 4.0276 3.0264 -0.9422 -3.4954 -0.6356 -0.9685 -9.1662 -1.2698 0.0197 0.0071 -0.1386 0.7053 -10.4742 -4.0038 -0.6744 -10.5006 3.7266 -15.2474 11.6302 -7.9369 -57.9174 9.1845 -49.2279 0.0355 -0.1207 -13.3797 2.8064 -11.0019 -0.6760 -15.8016 10.6244 15.6247 -61.0203 1.5398 2.2354 11.6773 9.7248 13.8072 57.8512 3.1122 35.4983 0.5194 -0.0835 24.5959 -8.5837 -7.2463 3.5830 15.2985 7.4595 -16.2757 49.7914 -3.3768 -5.3004 -0.9861 -22.9568 5.0806 0.0434 5.1599 0.4370 -2.5945 11.4750 0.0337 1.6991 -2.1133 -1.9954 8.1245 8.7755 -4.6522 -0.0121 10.5633 -0.0655 -1.2587 -16.8144 -10.0406 -1.4350 -0.6332 1.1165
-2.3689 97.0479 -6.4871 -3.9950 -3.2492 0.4728 3.8098 0.4836 -0.4015 0.2619 -4.3789 0.3337 1.2703 11.0309 -2.0955 -0.4880 4.2200 2.9655 -0.9073 -3.4817 -0.8482 -0.9184 -9.9344 -1.1879 0.0114 0.0353 -0.1024 0.7069 -10.4345 -3.9677 -0.6920 -10.4533 3.7658 -14.8946 12.0376 -7.8948 -57.7462 8.6698 -49.8712 -0.1358 -0.1004 -12.8894 2.4131 -10.0341 -0.1496 -15.8926 10.5924 15.5276 -61.1144 1.5057 2.0864 11.6867 9.9719 13.9170 57.7788 2.9218 35.7914 0.4266 -0.0996 23.8221 -8.4753 -7.3095 3.3926 15.3136 7.4165 -16.2627 49.8881 -3.3714 -5.2242 0.5124 -23.4738 4.2980 -0.0243 8.6821 0.2926 -2.9851 7.9338 0.1381 1.6710 -2.3896 -2.0893 9.2270 7.4791 -4.0477 -0.0508 11.6116 -0.1002 -1.9748 -16.4040 -11.1268 -1.4300 0.0175 1.0837
-2.2545 97.3288 -8.8887 -4.1744 -4.0646 0.7270 3.8622 0.9078 -0.3418 0.2490 -4.1796 0.1978 1.4290 11.2204 -2.1007 -0.1079 4.3602 2.7722 -0.8808 -3.4509 -0.9958 -1.0080 -10.1688 -1.2254 0.0129 0.0494 -0.0735 0.7131 -10.4513 -3.9418 -0.6942 -10.4546 3.7964 -14.5937 12.3496 -8.1330 -57.4253 8.5983 -50.6810 -0.1877 -0.1156 -12.4897 1.6068 -9.4604 0.3283 -15.9260 10.6464 15.5428 -61.1402 1.5831 2.0844 11.9362 10.1614 13.8392 57.8244 3.0315 36.1067 0.3496 -0.0947 23.0074 -8.5302 -7.6150 3.1961 15.3595 7.3282 -16.2390 49.7331 -3.4595 -5.2472 1.4714 -23.8202 3.6611 -0.0287 13.9124 0.2443 -2.1152 5.8650 0.1543 1.6893 -2.4833 -2.1213 9.5086 6.3257 -3.9489 -0.0691 12.3107 -0.1169 -2.6175 -15.4014 -11.8415 -1.4267 0.3439 1.0922
-2.0799 97.7314 -11.0904 -4.1304 -4.6655 0.7887 3.8479 1.0911 -0.2825 0.2117 -4.0872 0.1233 1.4433 11.3236 -2.0360 0.2493 4.6280 2.5844 -0.8690 -3.4342 -1.0259 -1.0756 -10.0157 -1.2968 0.0137 0.0559 -0.0616 0.7200 -10.4809 -3.9329 -0.6983 -10.4695 3.8080 -14.3335 12.4961 -8.4077 -57.1169 8.7628 -51.0799 -0.1605 -0.1256 -12.4775 0.9182 -8.8021 0.4356 -15.9012 10.7036 15.5730 -61.0546 1.6250 2.1270 12.2569 10.3136 13.6518 58.0934 3.5872 36.5818 0.2490 -0.0665 22.2526 -8.3433 -7.9757 2.9354 15.3875 7.2358 -16.2080 49.5414 -3.5398 -5.2973 2.4295 -23.7499 2.7180 0.0011 20.0292 0.2313 -1.3006 3.8945 0.2112 1.7116 -2.6523 -2.1183 9.4122 5.4994 -3.9834 -0.0785 12.0558 -0.0889 -3.2516 -13.8587 -12.2035 -1.4222 0.4352 1.0742
-1.8531 98.2241 -13.1159 -3.9910 -4.9711 0.5859 3.8427 1.0373 -0.1893 0.2005 -4.1400 0.0921 1.3912 11.3697 -1.9323 0.4422 4.8821 2.4561 -0.8378 -3.4451 -0.9499 -1.1500 -9.6661 -1.3497 0.0136 0.0555 -0.0409 0.7216 -10.5007 -3.9091 -0.6983 -10.4834 3.8223 -14.3705 12.5126 -8.6362 -56.6515 9.2458 -50.9876 -0.0497 -0.1384 -13.0823 0.7038 -8.7978 0.1202 -15.8054 10.7925 15.6392 -61.0769 1.6206 2.1910 12.6575 10.4076 13.4764 58.4091 4.6258 37.0945 0.2229 -0.0638 21.6674 -7.9945 -8.2897 2.6698 15.3804 7.2025 -16.1861 49.4665 -3.5528 -5.3112 3.3898 -23.1915 1.3160 0.0181 26.0313 0.1752 -0.4972 1.6628 0.7691 1.7311 -2.8655 -2.1085 9.1705 4.7990 -3.8251 -0.0804 10.9450 -0.0861 -3.8676 -11.8550 -12.4529 -1.4188 0.3806 1.0547
-1.5052 98.7321 -15.0400 -3.6410 -4.9900 0.1747 3.7307 0.7824 -0.1096 0.1958 -4.2900 0.1106 1.2483 11.3776 -1.8968 0.4940 4.9757 2.4133 -0.8128 -3.4657 -0.7586 -1.2189 -9.1387 -1.3650 0.0123 0.0483 -0.0264 0.7219 -10.5144 -3.8884 -0.6994 -10.4987 3.8307 -14.7424 12.4256 -8.8352 -56.0758 9.8042 -50.1461 0.1291 -0.1322 -14.2157 1.0460 -9.7722 -0.6112 -15.6765 10.8859 15.7482 -61.0416 1.6065 2.3091 13.1899 10.4569 13.4103 58.6444 5.8806 37.3774 0.3277 -0.0707 21.3034 -7.6493 -8.1869 2.4388 15.3790 7.1867 -16.1472 49.4314 -3.5527 -5.2974 3.9102 -21.9716 -0.1086 -0.0000 30.9121 0.0826 -0.1939 -0.1777 1.6059 1.7477 -3.0158 -2.1060 8.6400 3.9621 -3.5609 -0.0578 9.5661 -0.1199 -4.3464 -9.6964 -12.5293 -1.4184 0.2048 1.0358
-1.0836 99.1301 -16.9862 -3.3243 -4.8116 -0.3312 3.6346 0.4470 -0.0843 0.1998 -4.4559 0.1505 1.1219 11.3342 -1.9164 0.4646 4.9082 2.4521 -0.7987 -3.5041 -0.5563 -1.3066 -8.6564 -1.3143 0.0103 0.0323 -0.0206 0.7183 -10.5306 -3.8785 -0.6986 -10.5172 3.8315 -15.1396 12.2891 -9.0323 -55.5862 10.1441 -48.9173 0.3015 -0.1152 -15.6568 1.8055 -11.5513 -1.5774 -15.5554 10.9447 15.8851 -60.9329 1.5769 2.4088 13.6099 10.4816 13.3214 58.9429 7.1880 37.5218 0.4058 -0.0829 21.4244 -7.3638 -7.9238 2.3755 15.3883 7.1725 -16.1167 49.4075 -3.5729 -5.2862 4.2086 -20.4398 -1.0537 -0.0429 35.0945 -0.0077 -0.5868 -1.7391 1.9381 1.7703 -3.1063 -2.0887 8.1052 2.7608 -3.3004 -0.0331 8.5851 -0.1534 -4.6194 -7.8053 -12.4383 -1.4196 0.0791 1.0147
-0.6059 99.3651 -18.9405 -3.1827 -4.5826 -0.8129 3.6048 0.1320 -0.0781 0.2166 -4.6141 0.0860 1.0613 11.2650 -1.9873 0.4177 4.7426 2.5436 -0.7722 -3.5086 -0.3580 -1.4635 -8.3450 -1.1890 0.0061 0.0196 -0.0290 0.7180 -10.5386 -3.8870 -0.7059 -10.5285 3.8248 -15.4149 12.2068 -9.2410 -55.2584 10.1904 -47.8880 0.3685 -0.1041 -16.9355 2.4900 -12.6916 -2.3219 -15.4636 10.9411 15.9402 -60.7536 1.5397 2.4202 13.9086 10.4935 13.1739 59.2507 8.3499 37.4415 0.4545 -0.0827 21.9783 -7.3003 -7.8678 2.5618 15.4021 7.1448 -16.1064 49.3631 -3.5926 -5.2750 4.5574 -18.5818 -1.4343 -0.0766 38.7112 -0.0772 -1.2499 -3.2562 1.9154 1.7861 -3.1863 -2.0695 7.7123 1.2599 -3.1067 -0.0241 8.2450 -0.1885 -4.6698 -6.3438 -12.2145 -1.4240 -0.0103 0.9998
0.0061 99.4859 -21.0386 -3.1855 -4.3279 -1.2833 3.5827 -0.1795 -0.0983 0.2354 -4.7586 -0.0542 1.0849 11.1911 -2.1408 0.3791 4.5464 2.6448 -0.7297 -3.4821 -0.1931 -1.6503 -8.1546 -0.9946 0.0005 0.0191 -0.0318 0.7217 -10.5188 -3.8903 -0.7196 -10.5137 3.8238 -15.6578 12.1557 -9.4259 -55.0170 10.2343 -47.4158 0.2933 -0.1157 -17.8401 2.9582 -13.0328 -2.7709 -15.3732 10.9215 15.9239 -60.5762 1.5383 2.3766 14.2380 10.5193 12.9831 59.3780 9.2576 36.9582 0.5066 -0.0862 22.6921 -7.4251 -8.0868 2.8905 15.3573 7.1114 -16.0826 49.2313 -3.6128 -5.2446 5.0641 -16.4054 -1.4726 -0.0871 42.0019 -0.1291 -2.0552 -4.6363 1.6100 1.8004 -3.3802 -2.0632 7.4532 -0.5039 -2.9570 -0.0305 8.4138 -0.2177 -4.5565 -5.1437 -11.8849 -1.4294 -0.0421 0.9742
0.6070 99.5510 -23.1254 -3.3176 -4.0833 -1.8004 3.5428 -0.4987 -0.1203 0.2543 -4.9092 -0.2857 1.1974 11.1731 -2.3082 0.3787 4.3641 2.7063 -0.6702 -3.4611 0.0241 -1.8408 -7.9601 -0.7524 -0.0035 0.0190 -0.0260 0.7245 -10.5172 -3.8857 -0.7294 -10.5171 3.8324 -15.8454 12.1437 -9.5783 -54.8257 10.2171 -47.3589 0.1538 -0.1501 -18.4016 3.2817 -12.8553 -2.9492 -15.3172 10.9222 15.8905 -60.4858 1.5703 2.3003 14.6191 10.5604 12.7308 59.2757 9.9880 36.4071 0.5536 -0.1055 23.2935 -7.6467 -8.5527 3.2224 15.3086 7.0860 -16.0526 49.1190 -3.5934 -5.2217 5.7248 -13.8698 -1.3158 -0.0902 44.9096 -0.1916 -2.6650 -5.7419 1.2772 1.8153 -3.6733 -2.0658 7.3368 -2.3515 -2.7759 -0.0489 8.7782 -0.2498 -4.3634 -3.9802 -11.5547 -1.4302 -0.0515 0.9477
1.2659 99.5711 -25.2661 -3.4439 -3.8130 -2.2496 3.3945 -0.8312 -0.1635 0.2643 -5.0760 -0.5906 1.3406 11.1938 -2.4759 0.4756 4.2119 2.7006 -0.6316 -3.4578 0.2688 -2.0274 -7.7355 -0.4486 -0.0065 0.0120 -0.0163 0.7280 -10.5160 -3.8746 -0.7376 -10.5206 3.8414 -15.8965 12.1317 -9.7468 -54.7039 10.0602 -47.4825 0.0463 -0.1721 -18.7418 3.4726 -12.6431 -2.9734 -15.2656 10.9178 15.8761 -60.4459 1.6100 2.2751 14.9759 10.6140 12.3616 59.1210 10.3290 35.6577 0.5267 -0.1048 23.5756 -7.9354 -9.1531 3.4723 15.2811 7.0716 -16.0335 49.0417 -3.6004 -5.1933 6.3548 -10.8621 -1.1523 -0.0970 47.0113 -0.2857 -2.8024 -6.2118 1.1782 1.8385 -4.0167 -2.0746 7.1846 -4.3033 -2.7145 -0.0618 9.1610 -0.2550 -4.1445 -2.7512 -11.2975 -1.4276 -0.1035 0.9295
1.9349 99.5381 -27.4077 -3.5048 -3.4951 -2.5925 3.1412 -1.1336 -0.2337 0.2492 -5.2366 -0.9112 1.4440 11.1957 -2.6459 0.6944 4.1041 2.6431 -0.6098 -3.4500 0.4168 -2.1888 -7.5540 -0.0897 -0.0086 0.0066 -0.0059 0.7292 -10.5127 -3.8647 -0.7420 -10.5185 3.8527 -15.7439 12.1439 -9.9824 -54.6197 9.7526 -47.6479 -0.0206 -0.1776 -19.0486 3.6707 -12.6021 -3.0469 -15.2128 10.9094 15.8763 -60.3578 1.6402 2.2964 15.2758 10.6641 11.8933 59.0174 10.1775 34.6622 0.4384 -0.0880 23.5321 -8.3525 -9.8697 3.6783 15.2550 7.0817 -16.0244 49.0083 -3.6160 -5.1636 6.8185 -7.5669 -1.1605 -0.1133 47.8073 -0.4253 -3.0027 -5.8059 0.7136 1.8707 -4.5086 -2.0940 6.9501 -6.4056 -2.7212 -0.0652 9.6009 -0.2532 -3.9463 -1.5161 -11.1741 -1.4228 -0.1599 0.9243
2.6577 99.4381 -29.6287 -3.4728 -3.1454 -2.8316 2.8059 -1.3896 -0.3324 0.2085 -5.3740 -1.1898 1.4841 11.1699 -2.8605 1.0014 4.0734 2.5447 -0.5925 -3.4421 0.4752 -2.3177 -7.4572 0.2684 -0.0124 0.0056 -0.0091 0.7263 -10.5053 -3.8662 -0.7458 -10.5091 3.8483 -15.4333 12.1741 -10.2445 -54.5250 9.3175 -47.7990 -0.0548 -0.1814 -19.4484 3.8688 -12.5543 -3.2191 -15.1529 10.9053 15.8909 -60.2708 1.6554 2.3190 15.4529 10.7016 11.3843 59.0253 9.5316 33.3598 0.3178 -0.0671 23.3098 -8.8928 -10.6733 3.9115 15.2614 7.1112 -16.0267 49.0195 -3.6377 -5.1341 7.0273 -4.1374 -1.4312 -0.0984 47.0301 -0.5250 -3.6247 -4.7829 -0.4518 1.9146 -5.1925 -2.1307 6.6047 -8.6517 -2.7554 -0.0640 10.1479 -0.2410 -3.8139 -0.2948 -11.1383 -1.4197 -0.2012 0.9130
3.4274 99.2531 -32.0610 -3.3808 -2.7084 -3.0140 2.4240 -1.6352 -0.4192 0.1429 -5.5063 -1.4661 1.4828 11.1512 -3.0838 1.3492 4.0656 2.3967 -0.5680 -3.4302 0.5109 -2.3869 -7.3703 0.5177 -0.0137 0.0079 -0.0100 0.7232 -10.4943 -3.8658 -0.7446 -10.4923 3.8464 -15.0938 12.1677 -10.4781 -54.3386 8.8753 -47.9412 -0.0859 -0.1723 -20.0618 3.9862 -12.6047 -3.4391 -15.1167 10.8952 15.9265 -60.2687 1.6691 2.3474 15.5914 10.6842 10.8985 59.1075 8.6220 31.8228 0.1447 -0.0347 23.0509 -9.5544 -11.4537 4.2494 15.2932 7.1987 -16.0880 49.1371 -3.6325 -5.0890 6.9513 -0.7717 -1.8981 -0.0469 44.5458 -0.5619 -4.5144 -3.8139 -2.2173 1.9585 -6.1734 -2.1676 6.1683 -11.1718 -2.5883 -0.0587 10.8317 -0.2082 -3.7187 0.9056 -11.2903 -1.4223 -0.2500 0.9201
4.3159 98.9539 -34.6962 -3.1745 -2.2189 -3.0895 2.0072 -1.8414 -0.5210 0.0499 -5.5908 -1.6767 1.4286 11.1290 -3.2876 1.6931 4.0117 2.2080 -0.5316 -3.4220 0.5223 -2.3844 -7.2428 0.5865 -0.0133 0.0165 -0.0055 0.7232 -10.4806 -3.8588 -0.7433 -10.4728 3.8481 -14.8886 12.0477 -10.6894 -53.9122 8.4694 -48.0208 -0.1909 -0.1574 -20.8877 3.9203 -12.5551 -3.6826 -15.1327 10.8804 15.9841 -60.2397 1.6741 2.3773 15.7301 10.5809 10.4320 59.2358 7.6947 30.2060 -0.0708 0.0110 22.9197 -10.2876 -12.1927 4.7190 15.3139 7.2680 -16.1404 49.2418 -3.6210 -4.9975 6.4562 2.2050 -2.4863 0.0125 40.4026 -0.5547 -5.0002 -3.1747 -3.8559 2.0106 -8.4591 -2.2254 5.5495 -13.8498 -2.3092 -0.0552 11.5188 -0.1847 -3.6163 2.0989 -11.5916 -1.4254 -0.2779 0.9477
